<svg id="svg" version="1.1" xmlns="http://www.w3.org/2000/svg" xmlns:xlink="http://www.w3.org/1999/xlink" width="400" height="365.9983961507618" viewBox="0, 0, 400,365.9983961507618"><g id="svgg"><path id="path0" d="" stroke="none" fill="#14c4b4" fill-rule="evenodd"></path><path id="path1" d="M104.892 89.142 C 103.392 89.640,101.064 90.492,99.719 91.035 C 95.388 92.784,93.521 93.144,91.808 92.560 C 87.877 91.221,85.082 92.982,80.259 99.837 C 79.854 100.412,78.952 101.666,78.254 102.624 C 77.556 103.582,76.985 104.581,76.985 104.843 C 76.985 105.105,76.891 105.225,76.776 105.111 C 76.562 104.896,73.923 108.773,73.595 109.783 C 73.495 110.092,73.293 110.345,73.145 110.345 C 72.998 110.345,72.719 110.742,72.524 111.227 C 72.330 111.712,71.891 112.542,71.549 113.071 C 71.206 113.601,70.453 114.936,69.873 116.038 C 69.294 117.141,68.709 118.043,68.572 118.043 C 68.436 118.043,68.324 118.227,68.324 118.452 C 68.324 118.676,67.803 119.650,67.166 120.617 C 66.530 121.583,65.660 123.023,65.234 123.817 C 64.808 124.611,64.189 125.708,63.859 126.256 C 62.352 128.751,60.350 132.796,59.827 134.403 C 59.218 136.274,58.912 136.702,55.253 140.790 C 53.323 142.946,52.927 143.575,52.927 144.488 C 52.927 146.576,53.937 148.162,55.281 148.185 C 55.897 148.196,54.023 150.177,49.050 154.771 C 46.354 157.262,44.482 159.648,44.725 160.283 C 44.813 160.511,44.715 160.664,44.508 160.622 C 44.300 160.580,44.002 161.123,43.845 161.828 C 43.687 162.534,43.377 163.472,43.156 163.913 C 42.535 165.150,42.000 167.656,42.229 168.253 C 42.344 168.553,42.250 168.904,42.014 169.050 C 41.512 169.360,41.091 184.443,41.585 184.443 C 41.745 184.443,41.897 185.778,41.921 187.410 C 41.945 189.042,42.194 191.360,42.474 192.562 C 42.754 193.764,42.983 194.810,42.983 194.888 C 42.983 194.965,42.550 195.028,42.021 195.028 C 41.204 195.028,41.059 194.905,41.059 194.213 C 41.059 191.825,37.681 187.964,35.846 188.254 C 35.714 188.275,35.623 188.184,35.643 188.051 C 35.744 187.416,35.521 186.968,34.490 185.734 C 33.187 184.175,32.067 180.906,31.101 175.846 C 30.295 171.621,29.819 169.978,29.464 170.197 C 29.314 170.290,29.326 170.012,29.491 169.580 C 29.857 168.617,29.082 164.550,28.442 164.074 C 28.205 163.897,28.073 163.568,28.150 163.341 C 28.226 163.115,28.124 162.732,27.923 162.490 C 27.719 162.244,27.650 161.685,27.767 161.221 C 27.915 160.630,27.833 160.336,27.482 160.202 C 27.196 160.092,26.999 159.647,27.014 159.140 C 27.045 158.028,24.124 151.782,23.388 151.388 C 23.016 151.189,22.893 150.861,23.015 150.395 C 23.151 149.873,23.090 149.765,22.771 149.962 C 22.465 150.152,22.400 150.081,22.542 149.712 C 22.650 149.430,22.599 149.153,22.428 149.096 C 22.257 149.039,22.085 148.110,22.045 147.031 C 22.004 145.925,21.833 145.101,21.652 145.141 C 20.728 145.346,20.190 145.761,20.340 146.152 C 20.433 146.394,20.382 146.592,20.226 146.592 C 20.071 146.592,20.012 147.025,20.095 147.554 C 20.188 148.140,20.107 148.516,19.888 148.516 C 19.691 148.516,19.623 148.668,19.737 148.853 C 19.852 149.038,19.704 150.275,19.408 151.603 C 19.096 153.007,18.921 154.878,18.990 156.078 C 19.055 157.212,19.031 158.140,18.937 158.140 C 18.842 158.140,18.761 159.295,18.757 160.706 C 18.752 162.117,18.831 163.272,18.931 163.272 C 19.031 163.272,19.124 163.957,19.137 164.796 C 19.184 167.752,19.528 171.931,19.754 172.296 C 19.880 172.500,19.971 173.081,19.957 173.588 C 19.939 174.217,20.051 174.438,20.310 174.283 C 20.519 174.157,20.482 174.310,20.229 174.622 C 19.960 174.954,19.893 175.279,20.069 175.405 C 20.234 175.524,20.412 176.411,20.466 177.377 C 20.519 178.343,20.663 179.209,20.786 179.302 C 20.910 179.395,21.049 180.409,21.097 181.556 C 21.176 183.472,21.370 184.234,22.181 185.819 C 22.343 186.135,22.389 186.533,22.284 186.703 C 22.179 186.874,22.309 187.096,22.574 187.198 C 22.838 187.300,22.976 187.588,22.880 187.838 C 22.660 188.411,23.034 189.971,23.345 189.779 C 23.473 189.701,23.577 190.200,23.577 190.889 C 23.577 191.578,23.450 192.141,23.295 192.141 C 21.959 192.141,31.573 218.995,33.744 221.325 C 34.062 221.666,34.323 222.205,34.323 222.521 C 34.323 222.837,34.684 223.515,35.125 224.027 C 35.566 224.540,35.926 225.245,35.926 225.593 C 35.926 226.505,38.226 230.634,38.734 230.634 C 38.970 230.634,39.128 230.814,39.085 231.034 C 38.964 231.667,41.365 236.134,41.710 235.920 C 41.881 235.814,42.038 235.917,42.058 236.148 C 42.174 237.466,42.626 238.332,43.197 238.332 C 43.453 238.332,43.585 238.457,43.491 238.610 C 43.349 238.839,44.951 241.635,45.537 242.181 C 45.632 242.269,45.926 242.724,46.191 243.191 C 47.238 245.040,51.617 249.880,52.243 249.880 C 52.443 249.880,52.606 250.017,52.606 250.185 C 52.606 250.543,63.086 257.577,63.627 257.581 C 64.113 257.585,65.545 259.417,65.662 260.184 C 66.011 262.471,67.543 263.341,71.235 263.349 C 73.873 263.354,79.736 264.492,82.929 265.619 C 84.466 266.162,85.985 266.625,86.304 266.649 C 86.623 266.673,86.813 266.807,86.727 266.947 C 86.641 267.087,86.688 267.201,86.832 267.201 C 87.341 267.201,90.943 270.576,90.941 271.051 C 90.939 271.397,90.509 271.559,89.409 271.630 C 88.334 271.699,87.905 271.612,87.965 271.337 C 88.202 270.264,79.171 269.962,78.602 271.025 C 78.161 271.850,74.505 272.281,72.837 271.704 C 71.185 271.134,68.490 269.310,65.984 267.067 C 64.786 265.994,63.200 264.791,62.461 264.395 C 61.722 263.998,61.230 263.673,61.369 263.673 C 61.507 263.673,61.235 263.168,60.764 262.550 C 60.142 261.735,59.660 261.427,59.003 261.427 C 58.505 261.427,57.994 261.261,57.868 261.057 C 57.713 260.806,57.784 260.774,58.090 260.958 C 58.474 261.190,58.475 261.149,58.100 260.687 C 57.828 260.351,57.199 260.144,56.451 260.144 C 55.650 260.144,55.176 259.975,55.049 259.643 C 54.943 259.367,54.711 259.231,54.533 259.341 C 54.355 259.451,54.210 259.247,54.210 258.888 C 54.210 258.334,52.659 257.120,52.246 257.350 C 52.179 257.387,52.158 257.361,52.198 257.292 C 52.237 257.223,51.199 256.429,49.889 255.528 C 42.228 250.256,34.386 242.966,31.906 238.810 C 30.598 236.617,29.914 235.766,29.461 235.766 C 29.115 235.766,28.921 235.621,29.030 235.445 C 29.139 235.269,29.003 235.124,28.728 235.124 C 28.453 235.124,28.228 234.991,28.228 234.827 C 28.228 234.664,28.047 234.483,27.827 234.426 C 26.546 234.095,21.482 230.701,21.210 229.992 C 20.768 228.841,20.415 227.327,20.486 226.889 C 20.519 226.681,20.412 226.429,20.247 226.327 C 20.083 226.225,20.029 225.832,20.128 225.453 C 20.244 225.010,20.111 224.619,19.756 224.360 C 19.452 224.138,19.215 223.834,19.228 223.686 C 19.275 223.182,18.682 221.776,18.229 221.312 C 17.981 221.058,17.471 220.273,17.096 219.567 C 16.721 218.861,15.900 217.346,15.271 216.199 C 14.463 214.724,14.126 213.705,14.121 212.716 C 14.115 211.613,14.014 211.357,13.637 211.502 C 13.374 211.603,13.187 211.582,13.220 211.456 C 13.395 210.799,9.371 204.786,8.187 203.934 C 7.974 203.782,7.972 203.695,8.180 203.689 C 8.356 203.683,8.310 203.559,8.078 203.411 C 7.846 203.264,7.625 202.941,7.588 202.694 C 7.551 202.447,7.407 202.065,7.270 201.844 C 7.132 201.624,7.108 201.299,7.217 201.123 C 7.326 200.946,7.246 200.802,7.038 200.802 C 6.807 200.802,6.722 200.486,6.818 199.984 C 7.022 198.916,6.118 199.029,5.563 200.140 C 4.685 201.902,4.825 210.525,5.723 209.977 C 5.839 209.906,5.952 210.663,5.974 211.660 C 6.022 213.826,6.297 215.984,6.702 217.378 C 6.865 217.938,6.919 218.476,6.822 218.573 C 6.724 218.670,6.822 218.963,7.039 219.224 C 7.256 219.486,7.340 219.850,7.226 220.034 C 7.112 220.218,7.178 220.369,7.373 220.369 C 7.567 220.369,7.692 220.549,7.650 220.770 C 7.507 221.513,8.056 224.218,8.350 224.218 C 8.510 224.218,8.558 224.435,8.456 224.699 C 8.354 224.964,8.400 225.180,8.558 225.180 C 8.716 225.180,8.880 225.650,8.924 226.223 C 8.967 226.796,9.143 227.314,9.315 227.373 C 9.486 227.432,9.548 227.608,9.452 227.765 C 9.355 227.921,9.499 228.479,9.770 229.004 C 10.042 229.530,10.265 230.256,10.265 230.618 C 10.265 230.979,10.418 231.275,10.604 231.275 C 10.791 231.275,10.862 231.408,10.762 231.570 C 10.662 231.732,10.769 232.057,11.001 232.292 C 11.613 232.911,11.969 233.941,11.464 233.630 C 10.631 233.117,12.322 235.343,13.699 236.573 C 15.118 237.840,15.146 237.904,15.405 240.470 C 15.549 241.905,15.898 243.525,16.180 244.070 C 16.462 244.615,16.690 245.135,16.687 245.225 C 16.659 245.909,16.755 246.030,17.322 246.030 C 17.689 246.030,17.963 246.244,17.963 246.531 C 17.963 246.838,17.808 246.943,17.562 246.804 C 17.342 246.680,17.450 246.859,17.803 247.202 C 18.156 247.546,18.706 247.927,19.026 248.049 C 19.346 248.171,19.519 248.415,19.410 248.591 C 19.292 248.782,19.434 248.825,19.763 248.699 C 20.137 248.556,20.239 248.608,20.082 248.863 C 19.954 249.069,19.968 249.238,20.112 249.238 C 20.257 249.238,20.565 249.542,20.797 249.913 C 21.146 250.472,21.145 250.551,20.794 250.371 C 20.560 250.251,20.649 250.380,20.992 250.658 C 21.334 250.936,21.731 251.163,21.874 251.163 C 22.016 251.163,22.133 251.426,22.133 251.748 C 22.133 252.385,23.391 253.729,23.987 253.729 C 24.190 253.729,24.510 254.018,24.699 254.370 C 24.888 254.723,25.240 255.012,25.481 255.012 C 25.722 255.012,26.070 255.445,26.255 255.973 C 26.439 256.502,26.958 257.103,27.409 257.308 C 27.859 257.513,28.228 257.802,28.228 257.950 C 28.228 258.099,28.444 258.220,28.709 258.220 C 28.974 258.220,29.190 258.400,29.191 258.621 C 29.191 259.112,32.790 262.711,33.281 262.711 C 33.475 262.711,33.681 262.953,33.738 263.250 C 33.807 263.610,34.590 264.015,36.081 264.462 C 38.160 265.086,38.409 265.260,39.544 266.889 C 40.217 267.855,41.050 268.971,41.394 269.369 C 41.739 269.767,42.021 270.258,42.021 270.459 C 42.021 271.017,45.605 274.258,46.222 274.258 C 46.520 274.258,46.850 274.484,46.956 274.760 C 47.064 275.040,47.313 275.160,47.521 275.031 C 47.743 274.894,47.808 274.940,47.680 275.146 C 47.400 275.599,49.112 276.808,50.156 276.894 C 50.605 276.931,50.913 277.020,50.842 277.092 C 50.619 277.315,51.424 277.921,53.007 278.721 C 53.845 279.145,54.531 279.613,54.531 279.762 C 54.531 279.910,54.747 280.032,55.012 280.032 C 55.277 280.032,55.493 280.176,55.493 280.353 C 55.493 280.529,55.788 280.674,56.148 280.674 C 56.508 280.674,57.113 280.962,57.492 281.315 C 57.870 281.668,58.586 281.957,59.082 281.957 C 59.578 281.957,59.984 282.108,59.984 282.293 C 59.984 282.682,61.944 283.577,62.306 283.353 C 62.440 283.270,62.550 283.355,62.550 283.542 C 62.550 283.728,62.899 283.881,63.325 283.881 C 63.752 283.881,64.149 283.990,64.207 284.123 C 64.455 284.683,68.692 285.804,71.313 286.003 C 74.128 286.217,74.146 286.225,75.162 287.489 C 75.724 288.188,76.581 288.965,77.068 289.217 C 78.011 289.705,81.902 289.765,81.606 289.287 C 81.514 289.137,81.943 289.014,82.560 289.014 C 83.178 289.014,83.772 289.158,83.881 289.334 C 83.990 289.511,84.324 289.653,84.622 289.650 C 84.985 289.647,85.040 289.566,84.787 289.405 C 83.873 288.824,94.991 289.012,97.951 289.628 C 100.949 290.252,105.103 290.780,109.383 291.081 C 110.706 291.175,112.853 291.386,114.154 291.551 C 115.456 291.716,119.281 291.844,122.655 291.835 L 128.789 291.819 133.360 294.451 C 141.004 298.853,139.745 299.544,127.198 297.833 C 125.265 297.569,122.567 297.354,121.203 297.354 C 119.753 297.354,118.633 297.208,118.506 297.003 C 118.386 296.810,117.932 296.720,117.496 296.803 C 117.059 296.887,116.316 296.762,115.843 296.526 C 115.371 296.290,113.940 296.071,112.664 296.039 C 111.389 296.007,110.345 295.856,110.345 295.705 C 110.345 295.553,109.623 295.429,108.741 295.429 C 107.859 295.429,107.137 295.318,107.137 295.183 C 107.137 295.048,106.319 294.901,105.318 294.856 C 104.318 294.812,103.344 294.650,103.153 294.496 C 102.963 294.342,102.398 294.219,101.898 294.221 C 101.399 294.224,100.677 294.076,100.294 293.892 C 97.226 292.416,91.019 292.694,91.408 294.290 C 91.689 295.445,89.350 295.700,85.550 294.928 C 83.479 294.507,81.318 294.106,80.748 294.037 C 80.178 293.968,79.495 293.832,79.230 293.735 C 78.966 293.638,78.244 293.480,77.626 293.382 C 77.009 293.285,75.493 292.984,74.258 292.714 C 73.023 292.443,71.400 292.221,70.650 292.221 C 69.900 292.221,69.286 292.077,69.286 291.901 C 69.286 291.705,67.849 291.580,65.616 291.580 C 62.520 291.580,61.243 291.408,57.465 290.480 C 55.000 289.875,52.660 289.464,52.264 289.568 C 51.720 289.710,51.608 289.652,51.807 289.330 C 51.998 289.021,51.924 288.961,51.536 289.109 C 51.240 289.223,51.002 289.159,51.002 288.966 C 51.002 288.775,50.721 288.692,50.376 288.782 C 50.032 288.872,49.707 288.817,49.655 288.659 C 49.602 288.502,48.732 288.354,47.722 288.330 C 46.711 288.307,45.943 288.193,46.014 288.077 C 46.086 287.961,45.686 287.680,45.125 287.451 C 44.565 287.222,43.817 286.912,43.464 286.761 C 43.111 286.611,41.596 286.425,40.096 286.348 C 37.623 286.222,37.101 286.072,34.483 284.732 C 30.890 282.894,29.219 282.570,28.263 283.525 C 27.891 283.897,27.584 284.094,27.581 283.962 C 27.579 283.829,27.445 283.928,27.285 284.181 C 27.043 284.564,26.907 284.570,26.487 284.222 C 26.139 283.933,24.749 283.784,22.052 283.746 C 18.622 283.698,17.696 283.560,14.755 282.652 C 6.487 280.100,-1.540 279.871,1.524 282.275 C 2.009 282.655,2.203 282.861,1.955 282.733 C 1.656 282.578,1.583 282.626,1.737 282.875 C 1.864 283.081,2.087 283.177,2.231 283.088 C 2.375 282.999,2.672 283.141,2.890 283.404 C 3.108 283.666,3.494 283.881,3.747 283.881 C 4.001 283.881,4.119 284.026,4.010 284.202 C 3.820 284.508,4.477 284.667,5.405 284.539 C 5.643 284.507,5.752 284.619,5.647 284.789 C 5.542 284.959,5.755 285.437,6.121 285.853 C 6.486 286.268,6.679 286.391,6.548 286.127 C 6.418 285.862,6.669 285.970,7.106 286.367 C 7.543 286.764,8.148 287.089,8.451 287.089 C 8.754 287.089,9.083 287.300,9.182 287.558 C 9.356 288.011,10.495 288.565,10.986 288.436 C 11.119 288.401,11.227 288.488,11.227 288.629 C 11.227 288.827,13.784 289.933,14.755 290.155 C 14.844 290.175,15.132 290.285,15.397 290.400 C 16.389 290.830,19.989 291.901,20.441 291.901 C 20.929 291.901,22.806 292.852,23.107 293.251 C 23.201 293.377,23.780 293.689,24.393 293.945 C 25.006 294.202,25.911 294.784,26.403 295.241 C 27.308 296.079,27.440 296.102,31.676 296.143 C 32.249 296.149,32.719 296.261,32.719 296.392 C 32.719 296.522,33.909 296.729,35.365 296.851 C 38.036 297.075,40.799 297.849,47.394 300.217 C 49.379 300.930,51.002 301.415,51.002 301.294 C 51.002 301.173,51.176 301.248,51.387 301.460 C 51.599 301.671,52.257 301.844,52.850 301.844 C 53.486 301.844,53.846 301.976,53.729 302.165 C 53.607 302.363,54.160 302.486,55.172 302.486 C 56.185 302.486,56.738 302.609,56.616 302.807 C 56.507 302.983,56.643 303.128,56.918 303.128 C 57.193 303.128,57.418 303.272,57.418 303.448 C 57.418 303.625,57.706 303.769,58.059 303.769 C 58.412 303.769,58.990 304.058,59.342 304.411 C 59.695 304.763,60.264 305.052,60.607 305.052 C 60.949 305.052,61.318 305.196,61.427 305.373 C 61.536 305.549,62.029 305.694,62.521 305.694 C 63.014 305.694,63.835 305.831,64.347 305.999 C 64.858 306.168,65.710 306.383,66.239 306.477 C 66.768 306.572,70.088 307.274,73.617 308.037 C 82.535 309.966,83.332 310.105,83.794 309.812 C 84.441 309.401,89.422 309.487,89.686 309.913 C 89.840 310.162,89.767 310.198,89.464 310.024 C 89.216 309.881,89.627 310.342,90.377 311.048 C 91.583 312.183,92.205 313.076,91.477 312.626 C 91.332 312.536,90.863 312.644,90.434 312.865 C 90.006 313.086,87.706 314.040,85.325 314.985 C 82.943 315.929,80.521 316.968,79.942 317.293 C 79.363 317.617,78.747 317.883,78.573 317.883 C 78.398 317.883,76.635 318.966,74.655 320.289 C 72.675 321.612,71.172 322.694,71.316 322.694 C 71.460 322.694,71.361 322.911,71.096 323.176 C 70.832 323.440,70.459 323.657,70.267 323.657 C 70.076 323.657,69.668 323.786,69.362 323.943 C 69.056 324.100,68.400 324.390,67.905 324.586 C 67.410 324.782,67.094 325.086,67.202 325.262 C 67.311 325.438,67.102 325.581,66.739 325.581 C 66.376 325.581,66.079 325.695,66.079 325.833 C 66.079 325.971,65.656 326.334,65.139 326.640 C 61.584 328.739,56.448 335.396,56.638 337.654 C 56.722 338.641,56.649 339.013,56.404 338.861 C 56.163 338.713,56.095 338.961,56.194 339.633 C 56.274 340.178,56.238 340.561,56.113 340.484 C 55.989 340.407,55.690 340.587,55.449 340.883 C 55.073 341.347,55.079 341.383,55.493 341.139 C 55.921 340.887,55.921 340.921,55.493 341.448 C 54.770 342.338,54.884 351.217,55.624 351.631 C 55.927 351.800,56.135 352.339,56.135 352.957 C 56.135 354.040,58.459 360.232,59.853 362.862 C 60.295 363.696,60.628 364.418,60.594 364.466 C 60.559 364.515,60.630 364.865,60.750 365.244 C 61.081 366.287,62.181 365.892,61.973 364.803 C 61.865 364.237,61.931 364.049,62.183 364.205 C 62.432 364.359,62.550 364.070,62.550 363.303 C 62.550 362.617,62.786 361.949,63.152 361.600 C 63.863 360.922,65.571 355.317,65.338 354.426 C 65.249 354.087,65.301 353.809,65.453 353.809 C 65.778 353.809,66.036 352.556,66.339 349.491 C 66.619 346.662,67.625 345.807,73.678 343.251 C 78.308 341.297,80.205 340.175,80.674 339.115 C 80.850 338.717,81.673 338.052,82.503 337.638 C 83.333 337.224,83.923 336.796,83.813 336.687 C 83.704 336.577,83.782 336.488,83.988 336.488 C 84.194 336.488,84.362 336.661,84.362 336.872 C 84.362 337.172,84.448 337.172,84.747 336.872 C 84.959 336.661,85.509 336.488,85.970 336.488 C 86.794 336.488,88.212 335.469,88.212 334.877 C 88.212 334.711,88.568 334.486,89.003 334.377 C 89.438 334.267,89.763 334.025,89.725 333.838 C 89.686 333.650,90.016 333.390,90.457 333.260 C 90.898 333.130,91.140 333.009,90.996 332.991 C 90.609 332.944,91.629 331.997,92.065 331.997 C 92.269 331.997,94.314 330.393,96.608 328.432 C 101.457 324.290,101.005 324.380,106.458 326.457 C 109.231 327.514,109.916 327.644,113.232 327.750 C 115.662 327.828,118.015 328.131,120.128 328.640 C 121.893 329.064,124.202 329.443,125.261 329.482 C 126.319 329.521,127.330 329.629,127.506 329.723 C 128.021 329.997,128.523 330.037,133.761 330.220 C 136.496 330.315,140.999 330.487,143.769 330.601 C 148.138 330.782,148.911 330.739,149.611 330.280 C 151.020 329.357,153.410 329.776,153.803 331.016 C 154.086 331.906,157.601 331.920,162.669 331.049 C 164.677 330.704,166.752 330.369,167.281 330.303 C 168.085 330.203,168.293 329.989,168.541 329.005 L 168.838 327.827 171.428 327.823 C 174.511 327.819,176.480 327.536,176.230 327.131 C 176.128 326.967,176.389 326.924,176.824 327.033 C 177.849 327.291,181.014 326.220,184.585 324.408 C 186.980 323.192,187.643 322.986,188.595 323.159 C 194.196 324.177,195.685 324.305,202.138 324.321 C 206.049 324.330,209.345 324.202,209.676 324.027 C 210.340 323.676,216.956 322.478,219.888 322.178 C 221.716 321.991,221.973 322.059,225.020 323.534 L 228.228 325.085 233.360 325.194 L 238.492 325.302 241.270 326.725 C 242.798 327.507,244.349 328.148,244.718 328.148 C 245.087 328.148,245.389 328.263,245.389 328.404 C 245.389 329.502,252.501 329.865,253.619 328.823 C 254.208 328.274,255.180 328.181,263.703 327.859 C 270.019 327.620,276.580 327.131,283.561 326.379 C 289.294 325.762,296.151 325.176,298.797 325.078 C 305.001 324.848,305.052 324.836,305.052 323.676 C 305.052 320.916,310.421 322.155,314.034 325.748 C 316.048 327.751,318.330 329.159,320.507 329.741 C 321.332 329.962,322.301 330.416,322.659 330.749 C 323.016 331.082,323.588 331.355,323.930 331.355 C 324.271 331.355,324.637 331.581,324.743 331.857 C 324.849 332.133,325.075 332.272,325.247 332.166 C 325.418 332.060,325.852 332.267,326.211 332.627 C 326.571 332.986,327.090 333.280,327.365 333.280 C 327.640 333.280,327.782 333.414,327.680 333.578 C 327.579 333.742,328.004 334.060,328.624 334.284 C 329.244 334.508,329.751 334.807,329.751 334.948 C 329.751 335.089,330.040 335.204,330.393 335.204 C 330.746 335.204,331.034 335.349,331.034 335.525 C 331.034 335.702,331.287 335.846,331.596 335.846 C 331.905 335.847,332.573 336.204,333.081 336.641 C 333.589 337.078,334.121 337.365,334.262 337.277 C 334.403 337.190,334.609 337.265,334.720 337.445 C 334.831 337.624,335.202 337.771,335.544 337.771 C 335.887 337.771,336.167 337.884,336.167 338.022 C 336.167 338.893,338.049 339.550,343.461 340.568 L 348.029 341.427 348.965 343.689 C 349.480 344.933,350.786 348.549,351.867 351.724 C 353.205 355.652,354.053 357.666,354.520 358.024 C 355.053 358.432,355.238 358.989,355.349 360.515 C 355.506 362.685,355.846 363.154,356.647 362.302 C 356.938 361.992,356.998 361.838,356.780 361.960 C 356.514 362.109,356.446 362.018,356.573 361.687 C 356.678 361.414,356.891 361.269,357.047 361.366 C 357.203 361.462,357.244 361.317,357.139 361.043 C 357.034 360.769,357.108 360.545,357.303 360.545 C 357.499 360.545,357.630 360.437,357.595 360.305 C 357.476 359.853,358.021 358.621,358.340 358.621 C 358.515 358.621,358.585 358.502,358.496 358.357 C 358.406 358.212,358.520 357.733,358.748 357.293 C 360.909 353.129,360.394 345.750,357.377 337.647 C 356.713 335.863,355.837 333.220,355.431 331.774 C 355.025 330.329,354.416 328.849,354.078 328.487 C 353.740 328.124,353.566 327.827,353.692 327.827 C 353.818 327.827,353.582 327.466,353.168 327.025 C 352.753 326.584,352.302 326.223,352.164 326.223 C 352.026 326.223,351.572 325.898,351.153 325.501 C 349.338 323.778,347.527 322.808,341.664 320.419 C 339.729 319.631,338.746 319.023,338.136 318.238 C 336.578 316.233,335.706 315.615,332.157 314.000 C 330.217 313.116,328.596 312.395,328.555 312.397 C 328.515 312.399,327.648 312.041,326.630 311.602 C 325.612 311.163,324.491 310.684,324.138 310.537 C 323.785 310.390,323.136 310.109,322.694 309.912 C 322.253 309.715,321.221 309.515,320.400 309.468 C 319.579 309.421,318.974 309.274,319.055 309.142 C 319.137 309.010,318.943 308.897,318.624 308.891 C 318.304 308.886,317.021 308.749,315.772 308.586 C 314.523 308.424,311.781 308.272,309.678 308.249 C 304.762 308.196,304.411 308.111,304.411 306.971 C 304.411 306.111,304.315 306.056,302.165 305.671 C 298.761 305.063,298.934 304.175,302.406 304.440 C 309.029 304.946,312.017 304.335,313.000 302.275 C 313.631 300.952,314.304 300.912,320.324 301.841 C 329.602 303.273,336.133 302.660,339.572 300.035 C 341.414 298.629,342.247 298.316,344.146 298.316 C 344.987 298.316,345.946 298.105,346.290 297.845 C 346.716 297.523,347.738 297.371,349.521 297.364 L 352.130 297.354 353.203 295.957 C 354.923 293.715,362.288 291.414,368.966 291.032 C 370.686 290.933,372.093 290.727,372.093 290.575 C 372.093 290.422,372.359 290.297,372.685 290.297 C 373.010 290.297,373.538 290.008,373.857 289.655 C 374.177 289.302,374.704 289.014,375.030 289.014 C 375.488 289.014,375.621 288.770,375.621 287.934 L 375.621 286.854 377.818 286.697 C 380.752 286.487,383.374 285.203,386.848 282.275 C 388.348 281.011,390.044 279.746,390.617 279.464 C 391.191 279.182,391.660 278.825,391.660 278.671 C 391.660 278.516,391.804 278.480,391.981 278.589 C 392.846 279.123,392.245 276.834,391.315 276.051 C 389.947 274.900,385.724 275.174,384.104 276.519 C 383.849 276.730,383.641 276.820,383.641 276.718 C 383.641 276.616,382.669 276.898,381.482 277.345 C 379.406 278.126,379.094 278.153,373.319 278.052 C 368.826 277.974,367.214 278.048,366.913 278.348 C 366.692 278.569,366.099 278.749,365.595 278.749 C 365.065 278.749,364.761 278.884,364.876 279.070 C 364.985 279.246,364.849 279.391,364.574 279.391 C 364.299 279.391,364.074 279.535,364.074 279.711 C 364.074 279.888,363.569 280.032,362.951 280.032 C 362.334 280.032,361.828 280.176,361.828 280.353 C 361.828 280.529,361.251 280.674,360.545 280.674 C 359.840 280.674,359.262 280.818,359.262 280.994 C 359.262 281.171,358.972 281.315,358.616 281.315 C 358.035 281.315,356.789 281.854,356.375 282.284 C 355.971 282.704,354.425 283.198,353.856 283.088 C 353.509 283.022,352.959 283.168,352.635 283.414 C 352.310 283.660,351.440 283.866,350.701 283.871 C 349.961 283.877,349.267 284.026,349.158 284.202 C 349.049 284.379,348.275 284.523,347.439 284.523 C 346.603 284.523,345.724 284.703,345.486 284.924 C 345.141 285.245,345.100 285.245,345.281 284.924 C 345.552 284.443,344.642 284.365,344.346 284.844 C 344.237 285.020,343.615 285.167,342.964 285.169 C 342.082 285.173,341.903 285.253,342.261 285.485 C 342.673 285.751,342.661 285.797,342.181 285.801 C 341.872 285.804,341.620 285.665,341.620 285.493 C 341.620 285.290,341.332 285.290,340.800 285.492 C 340.227 285.710,340.043 285.700,340.191 285.461 C 340.339 285.221,339.141 285.172,336.200 285.296 C 332.790 285.441,331.997 285.392,331.997 285.039 C 331.997 284.783,332.507 284.523,333.244 284.405 C 333.929 284.296,335.120 283.846,335.890 283.406 C 336.691 282.948,337.804 282.604,338.492 282.602 C 339.154 282.600,339.695 282.454,339.695 282.277 C 339.695 282.101,340.080 281.957,340.551 281.957 C 341.021 281.957,341.317 281.867,341.207 281.758 C 341.098 281.649,341.208 281.360,341.452 281.117 C 341.992 280.576,342.386 280.533,342.067 281.049 C 341.904 281.313,342.017 281.350,342.449 281.173 C 342.787 281.035,343.328 280.846,343.652 280.753 C 344.111 280.622,344.146 280.525,343.812 280.313 C 343.531 280.135,343.768 280.039,344.507 280.032 C 345.351 280.025,345.510 279.945,345.148 279.711 C 344.773 279.469,344.862 279.399,345.549 279.395 C 346.034 279.393,346.431 279.238,346.431 279.051 C 346.431 278.864,346.564 278.793,346.726 278.893 C 346.889 278.994,347.249 278.848,347.528 278.569 C 347.807 278.290,348.035 278.152,348.035 278.263 C 348.035 278.374,348.468 278.209,348.998 277.896 C 349.527 277.583,349.960 277.228,349.960 277.107 C 349.960 276.986,350.393 276.736,350.922 276.552 C 351.451 276.367,351.885 276.064,351.885 275.879 C 351.885 275.693,352.115 275.541,352.396 275.541 C 352.677 275.541,352.980 275.263,353.069 274.922 C 353.158 274.581,353.405 274.369,353.618 274.451 C 354.147 274.654,356.696 272.766,356.696 272.171 C 356.696 271.906,356.982 271.692,357.338 271.692 C 357.690 271.692,357.979 271.548,357.979 271.371 C 357.979 271.195,358.120 271.051,358.292 271.051 C 358.946 271.051,361.828 267.967,361.828 267.268 C 361.828 266.879,362.009 266.553,362.229 266.544 C 362.450 266.535,363.352 265.424,364.234 264.074 C 365.743 261.766,366.058 261.486,369.540 259.359 C 373.763 256.778,374.935 255.976,374.490 255.970 C 374.318 255.967,374.539 255.785,374.980 255.565 C 375.421 255.345,375.984 254.709,376.230 254.151 C 376.476 253.594,376.939 253.069,377.258 252.986 C 377.577 252.903,377.916 252.458,378.013 251.999 C 378.109 251.539,378.263 250.802,378.354 250.361 C 378.446 249.920,378.708 249.559,378.938 249.559 C 379.541 249.559,381.964 247.408,382.200 246.663 C 382.311 246.315,382.572 246.028,382.780 246.025 C 382.989 246.022,383.520 245.588,383.962 245.060 C 384.403 244.533,385.174 243.677,385.675 243.158 C 386.177 242.640,386.493 242.064,386.378 241.878 C 386.263 241.692,386.298 241.540,386.457 241.540 C 386.615 241.540,386.770 240.855,386.802 240.018 C 386.925 236.755,387.406 234.999,388.713 233.039 C 391.888 228.278,397.113 217.625,397.113 215.915 C 397.113 215.571,397.254 215.242,397.426 215.183 C 397.599 215.124,397.774 214.246,397.816 213.232 C 397.889 211.473,398.154 210.919,398.504 211.788 C 398.593 212.009,398.678 211.814,398.692 211.356 C 398.706 210.898,398.942 210.072,399.217 209.521 C 400.372 207.206,399.762 198.519,398.517 199.552 C 397.936 200.034,397.220 201.293,397.693 201.001 C 397.886 200.881,397.948 201.058,397.849 201.439 C 397.757 201.791,397.570 202.009,397.434 201.925 C 397.106 201.722,396.416 202.565,396.688 202.836 C 396.804 202.952,396.746 203.047,396.558 203.047 C 396.371 203.047,395.759 203.763,395.198 204.637 C 394.637 205.511,392.817 208.070,391.155 210.323 C 389.492 212.576,388.132 214.603,388.132 214.828 C 388.132 215.053,388.014 215.237,387.870 215.237 C 387.726 215.237,387.194 216.103,386.688 217.161 C 386.182 218.220,385.578 219.086,385.346 219.086 C 385.114 219.086,384.924 219.295,384.924 219.551 C 384.924 219.807,384.730 220.132,384.494 220.273 C 383.859 220.652,382.358 223.369,382.358 224.140 C 382.358 226.340,380.795 228.356,377.386 230.555 C 376.151 231.351,375.092 232.128,375.033 232.281 C 374.975 232.433,374.775 232.558,374.590 232.558 C 374.405 232.558,374.018 232.830,373.730 233.162 C 373.442 233.494,372.920 233.818,372.570 233.883 C 372.219 233.948,371.716 234.468,371.451 235.037 C 371.187 235.607,370.790 236.076,370.569 236.080 C 370.349 236.083,370.168 236.288,370.168 236.533 C 370.168 236.779,369.959 237.060,369.704 237.158 C 369.449 237.256,369.015 237.772,368.740 238.304 C 368.013 239.709,365.073 243.576,364.477 243.911 C 364.196 244.069,363.522 244.303,362.978 244.433 C 362.434 244.562,361.772 244.722,361.508 244.788 C 360.843 244.953,360.192 245.889,360.382 246.405 C 360.608 247.021,360.249 247.389,358.621 248.211 C 357.124 248.967,354.791 250.825,355.289 250.865 C 355.446 250.877,355.285 251.000,354.933 251.137 C 354.581 251.274,354.279 251.589,354.261 251.836 C 354.183 252.890,354.113 253.087,353.815 253.087 C 353.437 253.087,351.633 254.719,348.795 257.629 C 347.650 258.803,346.375 259.849,345.963 259.952 C 344.381 260.349,341.299 261.897,341.299 262.294 C 341.299 262.523,341.114 262.711,340.889 262.711 C 340.663 262.711,340.270 262.999,340.016 263.352 C 339.762 263.705,339.425 263.994,339.268 263.994 C 339.111 263.994,338.313 264.547,337.494 265.224 C 332.029 269.742,326.612 271.453,324.253 269.407 C 323.386 268.656,323.323 268.657,321.568 269.482 L 320.128 270.159 319.550 269.445 L 318.972 268.732 316.583 269.435 C 311.791 270.846,306.667 271.841,305.726 271.542 C 304.087 271.022,305.869 268.407,308.825 266.995 C 309.753 266.552,310.452 266.092,310.379 265.973 C 310.306 265.855,310.773 265.743,311.418 265.724 C 312.063 265.706,315.477 265.446,319.006 265.148 C 323.912 264.733,325.723 264.689,326.704 264.959 C 329.552 265.745,332.076 265.278,332.799 263.833 C 333.152 263.128,333.549 262.502,333.681 262.443 C 333.813 262.384,333.921 262.197,333.921 262.028 C 333.921 261.110,336.673 259.510,338.275 259.498 C 338.976 259.493,341.174 258.773,341.507 258.440 C 341.628 258.319,341.991 258.220,342.315 258.220 C 342.638 258.220,342.903 258.075,342.903 257.899 C 342.903 257.723,343.160 257.578,343.474 257.578 C 343.788 257.578,344.252 257.289,344.507 256.937 C 344.761 256.584,345.204 256.295,345.490 256.295 C 345.777 256.295,346.272 256.006,346.592 255.654 C 346.911 255.301,347.292 255.012,347.438 255.012 C 347.813 255.012,349.660 253.316,355.293 247.795 C 357.993 245.148,360.454 242.827,360.761 242.636 C 361.069 242.445,361.441 241.821,361.589 241.250 C 361.738 240.678,362.362 239.769,362.977 239.229 C 363.592 238.688,364.041 238.193,363.976 238.127 C 363.910 238.061,364.410 237.425,365.088 236.713 C 365.765 236.001,366.319 235.208,366.319 234.950 C 366.319 234.693,366.464 234.483,366.640 234.483 C 366.816 234.483,366.933 234.374,366.900 234.242 C 366.715 233.517,367.364 231.968,367.784 232.130 C 368.037 232.227,368.244 232.146,368.244 231.951 C 368.244 231.278,368.324 231.112,369.085 230.208 C 369.504 229.709,369.848 229.178,369.848 229.028 C 369.848 228.878,370.033 228.564,370.260 228.331 C 370.487 228.098,371.157 227.113,371.749 226.143 C 372.341 225.172,373.453 223.643,374.220 222.744 C 374.987 221.846,375.539 221.035,375.447 220.943 C 375.356 220.852,375.651 220.534,376.103 220.238 C 376.555 219.942,376.840 219.561,376.735 219.392 C 376.631 219.224,376.699 219.086,376.886 219.086 C 377.072 219.086,377.225 218.859,377.225 218.582 C 377.225 218.011,377.973 217.161,378.474 217.161 C 378.994 217.161,379.457 216.054,379.256 215.288 C 379.147 214.868,379.224 214.595,379.452 214.595 C 379.660 214.595,379.766 214.487,379.688 214.354 C 379.226 213.571,380.126 210.368,381.204 208.956 C 381.839 208.125,382.358 207.250,382.358 207.011 C 382.358 206.772,382.498 206.576,382.670 206.576 C 383.455 206.576,383.962 204.624,383.962 201.603 C 383.962 198.612,384.018 198.373,385.924 193.327 C 388.564 186.337,390.377 180.939,390.377 180.066 C 390.377 179.671,390.497 179.274,390.643 179.184 C 390.923 179.010,391.628 176.170,391.827 174.410 C 391.891 173.841,392.041 173.015,392.159 172.574 C 392.278 172.133,392.441 170.475,392.522 168.890 C 392.602 167.305,392.766 165.933,392.886 165.843 C 393.210 165.597,393.153 161.698,392.829 161.899 C 392.676 161.993,392.603 161.416,392.667 160.617 C 392.731 159.817,392.681 159.226,392.556 159.303 C 392.431 159.380,392.415 158.722,392.519 157.840 C 392.751 155.881,392.150 154.071,391.459 154.645 C 391.216 154.846,391.018 155.362,391.018 155.792 C 391.018 156.222,390.903 156.502,390.761 156.414 C 390.619 156.327,390.495 156.571,390.486 156.957 C 390.447 158.505,390.357 158.781,389.896 158.781 C 389.631 158.781,389.415 158.926,389.415 159.104 C 389.415 159.282,389.058 159.737,388.622 160.116 C 387.654 160.958,386.509 163.663,383.450 172.340 C 378.483 186.430,374.636 194.058,372.199 194.651 C 371.964 194.708,371.772 194.888,371.772 195.052 C 371.772 195.215,371.492 195.349,371.150 195.349 C 370.807 195.349,370.438 195.493,370.329 195.670 C 370.220 195.846,369.873 195.990,369.558 195.990 C 368.876 195.990,367.281 197.289,367.281 197.844 C 367.281 198.472,365.338 202.406,365.027 202.406 C 364.872 202.406,364.645 202.947,364.523 203.609 C 364.402 204.270,364.197 204.884,364.068 204.972 C 363.940 205.060,363.326 206.143,362.705 207.378 C 361.667 209.442,357.699 214.769,354.375 218.561 C 352.491 220.710,352.408 220.810,352.045 221.383 C 351.383 222.425,348.909 225.351,348.481 225.597 C 348.236 225.738,348.035 226.201,348.035 226.625 C 348.035 227.129,347.417 228.031,346.257 229.219 C 343.687 231.851,342.117 234.299,340.824 237.690 C 339.769 240.458,338.247 243.554,337.530 244.388 C 337.134 244.850,336.809 245.388,336.809 245.583 C 336.808 246.500,323.230 246.241,322.641 245.313 C 321.720 243.862,325.580 238.653,327.576 238.653 C 327.924 238.653,328.618 238.362,329.117 238.006 C 329.617 237.650,330.691 237.235,331.504 237.083 C 332.317 236.931,333.241 236.572,333.557 236.286 C 333.874 236.000,334.590 235.766,335.150 235.766 C 335.709 235.766,336.167 235.614,336.167 235.429 C 336.167 235.243,336.688 234.874,337.325 234.608 C 338.077 234.294,338.607 233.794,338.838 233.181 C 339.034 232.662,339.307 232.237,339.445 232.237 C 339.583 232.237,339.695 231.877,339.695 231.435 C 339.695 230.994,339.847 230.634,340.032 230.634 C 340.489 230.634,341.172 228.882,341.440 227.025 C 341.560 226.187,341.795 225.501,341.960 225.501 C 342.126 225.501,342.261 225.279,342.261 225.006 C 342.261 223.706,346.392 219.296,350.961 215.720 C 352.087 214.840,353.554 213.576,354.222 212.914 C 354.891 212.251,355.514 211.708,355.608 211.708 C 356.594 211.708,360.225 206.564,360.225 205.166 C 360.225 204.883,360.441 204.651,360.706 204.651 C 361.061 204.651,361.187 204.279,361.187 203.229 C 361.187 202.446,361.350 201.400,361.549 200.903 C 361.748 200.406,361.889 199.350,361.863 198.557 C 361.837 197.763,362.033 196.319,362.299 195.349 C 362.565 194.379,362.785 192.662,362.787 191.535 C 362.790 189.988,362.923 189.389,363.330 189.091 C 363.823 188.730,363.839 188.236,363.511 183.282 C 363.315 180.304,363.146 176.539,363.137 174.917 C 363.126 173.038,362.934 171.466,362.606 170.587 C 361.631 167.968,361.586 167.072,362.387 166.271 C 364.062 164.596,363.240 161.801,360.083 158.441 C 358.576 156.838,357.983 155.921,357.593 154.592 C 356.755 151.739,355.936 147.204,355.898 145.207 C 355.874 143.957,355.708 143.244,355.397 143.047 C 355.077 142.844,355.057 142.751,355.333 142.747 C 355.846 142.741,355.851 142.025,355.341 141.516 C 355.126 141.301,354.992 140.622,355.045 140.009 C 355.099 139.386,354.993 138.893,354.806 138.893 C 354.622 138.893,354.554 138.677,354.655 138.412 C 354.757 138.148,354.699 137.931,354.526 137.931 C 354.353 137.931,354.114 137.321,353.995 136.576 C 353.876 135.831,353.547 134.965,353.263 134.652 C 352.979 134.338,352.838 134.082,352.949 134.082 C 353.061 134.082,352.706 132.891,352.162 131.435 C 351.618 129.980,350.601 126.915,349.902 124.624 C 349.204 122.334,348.534 120.385,348.414 120.294 C 348.294 120.203,348.149 119.840,348.092 119.487 C 347.485 115.743,342.076 107.787,339.219 106.438 C 338.158 105.936,335.413 104.079,333.119 102.310 C 330.826 100.541,328.589 99.005,328.148 98.896 C 327.706 98.787,327.273 98.612,327.185 98.507 C 326.902 98.170,324.168 96.906,323.252 96.690 C 322.764 96.574,322.241 96.257,322.089 95.985 C 321.926 95.695,321.596 95.573,321.291 95.690 C 321.004 95.800,320.770 95.758,320.770 95.597 C 320.770 95.435,319.651 94.758,318.284 94.092 C 315.686 92.827,306.656 91.978,306.656 93.000 C 306.656 93.189,306.367 93.344,306.014 93.344 C 305.662 93.344,305.373 93.488,305.373 93.665 C 305.373 93.841,305.145 93.986,304.867 93.986 C 304.588 93.986,303.806 94.563,303.128 95.269 C 302.449 95.974,301.729 96.552,301.526 96.552 C 300.172 96.552,299.679 100.114,300.882 101.203 C 301.323 101.602,301.524 102.191,301.524 103.088 C 301.524 104.257,301.729 104.601,303.490 106.377 C 305.255 108.159,306.769 111.689,305.406 110.846 C 305.246 110.747,304.851 111.304,304.529 112.084 C 304.053 113.235,303.763 113.528,302.988 113.641 C 301.591 113.846,298.253 113.690,297.542 113.385 C 297.071 113.184,296.990 113.223,297.194 113.553 C 297.365 113.830,297.185 113.792,296.694 113.448 C 295.821 112.836,295.108 112.749,295.108 113.255 C 295.108 113.738,294.276 114.515,293.759 114.515 C 293.520 114.515,293.117 114.804,292.863 115.156 C 292.609 115.509,292.176 115.798,291.901 115.798 C 291.626 115.798,291.193 116.087,290.938 116.439 C 290.587 116.927,290.108 117.081,288.943 117.081 C 288.100 117.081,287.410 117.225,287.410 117.402 C 287.410 117.578,286.688 117.723,285.806 117.723 C 284.924 117.723,284.202 117.867,284.202 118.043 C 284.202 118.220,283.971 118.364,283.689 118.364 C 283.201 118.364,280.353 121.106,280.353 121.576 C 280.353 121.699,279.991 122.189,279.549 122.666 C 278.980 123.280,278.801 123.751,278.934 124.280 C 279.068 124.814,278.932 125.161,278.457 125.493 C 277.821 125.939,277.923 126.059,280.988 128.448 C 286.105 132.436,289.315 135.805,295.704 143.890 C 295.994 144.257,296.375 144.790,296.552 145.074 C 296.728 145.358,298.458 147.873,300.396 150.662 C 303.427 155.025,304.257 156.518,306.337 161.347 C 308.539 166.458,309.451 168.348,310.589 170.160 C 315.820 178.486,317.600 181.658,318.874 184.924 C 319.287 185.982,320.054 187.491,320.579 188.277 C 321.612 189.826,321.591 189.565,321.211 195.910 C 321.058 198.466,320.911 199.198,320.552 199.198 C 320.298 199.198,320.157 199.306,320.239 199.439 C 320.321 199.571,319.972 199.667,319.465 199.651 C 317.910 199.603,314.600 200.144,314.147 200.520 C 313.107 201.383,309.243 199.576,308.022 197.656 C 307.720 197.181,307.397 196.720,307.305 196.632 C 307.213 196.544,307.097 196.111,307.047 195.670 C 306.845 193.869,306.620 193.573,304.806 192.709 C 302.906 191.804,300.906 190.065,298.957 187.623 C 297.101 185.297,295.043 183.160,294.660 183.160 C 294.462 183.160,294.120 182.871,293.900 182.518 C 293.679 182.165,293.234 181.877,292.910 181.877 C 292.586 181.877,292.059 181.588,291.740 181.235 C 291.421 180.882,290.965 180.593,290.728 180.593 C 290.491 180.593,290.297 180.449,290.297 180.273 C 290.297 180.096,290.008 179.952,289.655 179.952 C 289.302 179.952,289.014 179.808,289.014 179.631 C 289.014 179.455,288.663 179.310,288.234 179.310 C 287.670 179.310,287.426 179.111,287.352 178.589 C 287.282 178.099,286.912 177.758,286.199 177.527 C 285.621 177.341,285.224 177.112,285.316 177.020 C 285.409 176.928,285.087 176.652,284.603 176.407 C 284.118 176.162,283.118 175.561,282.380 175.070 C 281.643 174.579,280.841 174.178,280.600 174.178 C 280.358 174.178,280.023 174.047,279.856 173.887 C 279.218 173.277,276.648 172.028,276.292 172.155 C 276.088 172.228,275.827 172.135,275.712 171.950 C 275.597 171.764,275.223 171.612,274.881 171.612 C 274.538 171.612,274.258 171.484,274.258 171.328 C 274.258 171.172,273.428 170.712,272.414 170.306 C 271.399 169.899,270.493 169.456,270.399 169.321 C 270.306 169.186,269.692 169.039,269.036 168.995 C 268.380 168.951,267.843 168.835,267.843 168.738 C 267.843 168.470,266.184 167.794,265.277 167.692 C 264.836 167.643,264.403 167.514,264.314 167.407 C 264.049 167.082,260.091 166.079,258.460 165.922 C 257.622 165.842,256.937 165.661,256.937 165.521 C 256.937 164.386,252.949 163.964,241.537 163.891 L 230.473 163.821 228.228 164.700 C 224.504 166.158,224.289 166.189,220.690 165.788 C 217.543 165.438,217.231 165.338,215.945 164.262 C 212.105 161.052,210.948 160.803,210.602 163.111 C 210.351 164.788,208.862 165.199,207.698 163.913 C 207.212 163.376,206.711 163.272,204.601 163.272 C 203.217 163.272,202.085 163.142,202.085 162.982 C 202.085 161.788,198.533 161.771,195.670 162.951 C 194.386 163.480,193.096 163.913,192.803 163.913 C 192.509 163.913,192.109 164.074,191.913 164.270 C 191.652 164.531,191.257 164.317,190.432 163.468 C 188.852 161.840,187.812 161.900,185.741 163.739 C 183.669 165.579,183.388 165.711,181.015 165.947 C 179.924 166.056,178.163 166.386,177.103 166.681 C 175.009 167.263,174.350 167.191,169.388 165.844 C 167.009 165.198,164.539 164.998,164.119 165.418 C 163.998 165.540,163.143 165.678,162.222 165.725 C 157.194 165.983,143.307 167.948,142.731 168.484 C 142.399 168.793,141.905 169.046,141.633 169.046 C 141.361 169.046,141.139 169.168,141.139 169.318 C 141.139 169.467,140.742 169.602,140.257 169.617 C 139.380 169.644,134.721 171.818,131.026 173.923 C 129.963 174.529,128.339 175.295,127.418 175.627 C 126.496 175.958,125.742 176.354,125.742 176.506 C 125.742 176.658,125.599 176.694,125.424 176.585 C 125.014 176.332,123.496 177.841,123.496 178.502 C 123.496 178.800,123.120 179.081,122.575 179.190 C 121.904 179.324,120.158 180.979,116.144 185.282 C 106.167 195.980,104.769 196.830,97.354 196.708 C 94.335 196.659,92.177 196.494,92.114 196.308 C 92.056 196.133,91.803 195.990,91.553 195.990 C 91.303 195.990,91.099 195.881,91.099 195.748 C 91.099 195.384,89.552 194.776,87.570 194.360 C 85.413 193.908,85.174 193.724,84.103 191.680 C 83.017 189.607,82.926 183.990,83.962 182.896 C 84.182 182.663,84.362 182.266,84.362 182.014 C 84.362 181.762,84.476 181.556,84.614 181.556 C 84.752 181.556,85.121 181.123,85.434 180.593 C 85.747 180.064,85.936 179.631,85.856 179.631 C 85.674 179.631,87.880 177.156,91.199 173.634 C 92.578 172.171,93.615 170.829,93.505 170.651 C 93.395 170.473,93.675 170.187,94.127 170.015 C 94.578 169.844,94.948 169.464,94.948 169.172 C 94.948 168.879,95.462 168.155,96.091 167.562 C 96.720 166.969,97.144 166.339,97.034 166.161 C 96.924 165.983,97.043 165.838,97.298 165.838 C 97.553 165.838,98.004 165.467,98.302 165.013 C 98.599 164.559,99.340 163.660,99.949 163.015 C 100.557 162.370,100.990 161.673,100.910 161.466 C 100.831 161.259,101.059 161.013,101.418 160.919 C 101.776 160.826,101.974 160.595,101.858 160.407 C 101.741 160.218,101.805 160.064,101.999 160.064 C 102.194 160.064,102.671 159.754,103.061 159.375 C 103.450 158.997,103.553 158.799,103.288 158.937 C 103.023 159.074,103.312 158.740,103.929 158.195 C 104.547 157.650,104.964 157.197,104.857 157.190 C 104.749 157.183,105.255 156.544,105.979 155.769 C 108.444 153.137,108.741 152.757,108.741 152.240 C 108.741 151.956,108.966 151.724,109.241 151.724 C 109.516 151.724,109.652 151.580,109.543 151.403 C 109.434 151.227,109.498 151.083,109.684 151.083 C 109.871 151.083,110.024 150.866,110.024 150.601 C 110.024 150.337,110.165 150.120,110.337 150.120 C 110.508 150.120,110.878 149.677,111.158 149.136 C 111.438 148.594,112.086 147.764,112.599 147.291 C 113.111 146.818,113.571 146.219,113.621 145.959 C 113.672 145.699,113.987 145.338,114.323 145.157 C 114.658 144.976,115.092 144.545,115.285 144.199 C 115.479 143.853,115.964 143.300,116.362 142.970 C 116.761 142.640,117.005 142.238,116.905 142.075 C 116.804 141.913,117.020 141.780,117.383 141.780 C 117.746 141.780,118.043 141.663,118.043 141.520 C 118.043 141.377,118.339 140.942,118.701 140.554 C 119.063 140.165,119.271 139.705,119.163 139.531 C 119.056 139.357,119.243 139.214,119.579 139.214 C 119.915 139.214,120.520 138.928,120.923 138.579 C 121.325 138.230,121.779 138.021,121.930 138.115 C 122.082 138.208,122.120 138.061,122.015 137.787 C 121.890 137.462,122.006 137.289,122.349 137.289 C 122.638 137.289,122.958 137.073,123.060 136.808 C 123.161 136.544,123.387 136.327,123.561 136.327 C 124.126 136.327,125.755 135.004,125.566 134.699 C 125.466 134.536,125.589 134.403,125.840 134.403 C 126.091 134.403,126.785 133.974,127.382 133.450 C 127.980 132.927,128.865 132.410,129.350 132.302 C 129.836 132.194,130.233 131.984,130.233 131.834 C 130.233 131.685,130.630 131.359,131.115 131.110 C 133.662 129.805,136.503 128.228,136.646 128.040 C 136.735 127.923,137.747 127.400,138.893 126.877 C 140.040 126.355,141.206 125.742,141.485 125.514 C 141.763 125.286,142.153 125.100,142.350 125.100 C 142.547 125.100,143.387 124.739,144.217 124.298 C 145.046 123.857,145.487 123.496,145.196 123.496 C 144.881 123.496,144.667 123.237,144.667 122.855 C 144.667 122.502,144.523 122.213,144.346 122.213 C 144.170 122.213,144.026 121.579,144.026 120.804 C 144.026 119.331,143.716 119.006,142.313 119.006 C 141.635 119.006,139.535 117.057,139.535 116.429 C 139.535 116.258,139.391 116.119,139.214 116.119 C 139.038 116.119,138.929 115.938,138.974 115.718 C 139.024 115.466,138.600 115.279,137.837 115.216 C 136.889 115.138,136.254 114.766,134.960 113.532 C 133.758 112.386,133.045 111.949,132.376 111.949 C 131.775 111.949,131.155 111.631,130.602 111.039 C 129.618 109.986,128.665 109.686,125.648 109.479 C 123.951 109.362,123.383 109.192,123.084 108.714 C 122.873 108.376,122.447 108.099,122.136 108.099 C 121.776 108.099,121.558 107.838,121.534 107.378 C 121.470 106.162,121.603 105.720,122.241 105.031 C 123.409 103.771,123.056 102.980,119.882 99.743 C 118.248 98.076,115.077 94.800,112.837 92.462 C 108.299 87.727,108.676 87.885,104.892 89.142 M49.418 206.911 C 49.925 207.271,50.899 208.137,51.583 208.835 C 52.267 209.533,53.056 210.104,53.337 210.104 C 53.617 210.104,53.930 210.370,54.033 210.694 C 54.136 211.019,54.579 211.476,55.017 211.711 C 55.455 211.945,55.814 212.257,55.814 212.404 C 55.814 212.550,56.003 212.670,56.235 212.670 C 56.466 212.670,56.935 212.930,57.277 213.248 C 57.619 213.566,58.152 213.922,58.460 214.040 C 58.769 214.158,59.022 214.475,59.022 214.745 C 59.022 215.016,59.264 215.237,59.561 215.237 C 60.084 215.237,62.641 217.735,63.214 218.807 C 63.371 219.100,63.710 220.644,63.968 222.239 C 64.776 227.236,65.756 228.225,71.954 230.297 C 74.103 231.016,76.490 231.963,77.258 232.402 C 78.026 232.841,78.824 233.200,79.031 233.200 C 79.357 233.200,80.550 241.502,80.521 243.574 C 80.514 244.122,80.269 244.150,77.065 243.970 C 75.168 243.864,71.993 243.694,70.008 243.593 C 65.050 243.341,63.536 241.914,62.720 236.728 C 62.595 235.934,62.262 234.491,61.978 233.520 C 61.695 232.550,61.501 231.562,61.546 231.326 C 61.592 231.089,61.368 230.697,61.047 230.454 C 60.727 230.211,60.566 230.008,60.688 230.002 C 61.762 229.953,58.345 224.218,57.242 224.218 C 56.826 224.218,56.467 223.232,56.460 222.069 C 56.457 221.681,56.203 221.216,55.894 221.036 C 55.585 220.856,55.441 220.705,55.573 220.699 C 55.706 220.694,55.525 220.401,55.172 220.048 C 54.820 219.695,54.531 219.190,54.531 218.925 C 54.531 218.661,54.387 218.444,54.210 218.444 C 54.034 218.444,53.889 218.219,53.889 217.944 C 53.889 217.669,53.762 217.523,53.606 217.619 C 53.334 217.787,52.899 216.917,52.429 215.263 C 52.308 214.837,51.757 214.060,51.204 213.537 C 50.652 213.014,50.417 212.687,50.682 212.812 C 50.980 212.953,50.950 212.864,50.601 212.579 C 50.293 212.326,50.040 211.877,50.040 211.582 C 50.040 211.288,49.823 210.963,49.559 210.862 C 48.973 210.637,47.795 208.068,47.795 207.016 C 47.795 206.083,48.217 206.055,49.418 206.911 M287.967 289.699 C 288.405 290.137,287.749 290.938,286.952 290.938 C 286.674 290.938,286.447 291.083,286.447 291.259 C 286.447 291.435,286.111 291.580,285.699 291.580 C 285.287 291.580,284.849 291.681,284.726 291.805 C 284.470 292.060,281.681 292.987,279.070 293.683 C 278.099 293.942,277.017 294.281,276.664 294.437 C 276.311 294.593,274.002 295.189,271.532 295.763 C 269.062 296.336,266.897 296.909,266.720 297.036 C 266.544 297.163,266.183 297.275,265.918 297.286 C 265.654 297.297,264.658 297.411,263.706 297.540 L 261.974 297.775 262.201 296.843 C 262.451 295.817,262.727 295.558,266.239 293.056 C 270.617 289.937,270.264 290.026,279.115 289.787 C 283.413 289.671,286.989 289.521,287.062 289.455 C 287.296 289.244,287.592 289.324,287.967 289.699 M158.646 312.672 C 158.777 312.541,159.045 312.758,159.242 313.153 C 159.633 313.940,163.913 314.466,163.913 313.728 C 163.913 313.361,164.955 313.293,166.056 313.589 C 166.799 313.788,167.370 314.753,166.848 314.927 C 166.678 314.983,166.231 315.297,165.855 315.623 C 162.526 318.510,157.711 318.843,151.034 316.648 C 148.801 315.914,146.311 315.222,145.500 315.111 C 142.644 314.719,143.439 313.571,146.381 313.838 C 150.144 314.179,156.536 313.283,156.536 312.414 C 156.536 311.924,157.659 311.927,158.033 312.418 C 158.239 312.688,158.515 312.803,158.646 312.672 M250.200 314.071 C 250.200 314.227,249.767 314.354,249.238 314.354 C 248.353 314.354,248.029 314.067,248.444 313.652 C 248.702 313.393,250.200 313.751,250.200 314.071 " stroke="none" fill="#fb6c73" fill-rule="evenodd"></path><path id="path2" d="M146.455 87.009 C 147.126 87.759,150.238 91.045,153.370 94.312 L 159.066 100.252 163.414 100.902 L 167.762 101.551 170.677 98.666 L 173.592 95.782 167.265 92.638 C 163.786 90.909,160.698 89.495,160.405 89.495 C 160.112 89.495,159.732 89.355,159.561 89.185 C 159.035 88.658,155.368 87.610,150.538 86.605 C 144.777 85.407,145.001 85.385,146.455 87.009 M276.645 89.588 C 274.539 91.315,272.767 92.866,272.708 93.036 C 272.649 93.205,272.421 93.344,272.201 93.344 C 271.981 93.344,271.163 93.931,270.383 94.648 C 269.603 95.366,268.427 96.322,267.768 96.773 C 266.183 97.858,266.473 98.156,269.115 98.156 C 274.726 98.156,284.376 100.085,290.778 102.486 C 296.647 104.688,304.852 109.169,305.380 110.461 C 305.588 110.970,305.634 110.788,305.558 109.754 C 305.469 108.536,305.209 108.112,303.490 106.377 C 301.729 104.601,301.524 104.257,301.524 103.088 C 301.524 102.191,301.323 101.602,300.882 101.203 C 299.679 100.114,300.172 96.552,301.526 96.552 C 301.729 96.552,302.449 95.974,303.128 95.269 C 303.806 94.563,304.588 93.986,304.867 93.986 C 305.145 93.986,305.373 93.841,305.373 93.665 C 305.373 93.488,305.662 93.344,306.014 93.344 C 306.367 93.344,306.656 93.204,306.656 93.033 C 306.656 92.853,308.379 92.684,310.746 92.632 L 314.836 92.542 310.345 91.021 C 301.269 87.947,290.102 86.180,281.297 86.425 C 280.753 86.440,279.182 87.509,276.645 89.588 M259.937 91.136 C 253.993 94.189,253.469 94.629,252.561 97.319 C 252.138 98.574,251.992 99.370,252.216 99.196 C 255.433 96.692,264.006 89.706,264.310 89.340 C 264.928 88.595,264.701 88.688,259.937 91.136 M250.283 101.043 C 247.436 103.751,249.713 107.196,257.708 112.277 C 259.666 113.521,264.917 117.060,269.377 120.140 C 273.838 123.221,277.681 125.742,277.918 125.742 C 278.587 125.742,279.144 124.878,278.924 124.183 C 278.790 123.762,278.992 123.267,279.539 122.677 C 279.986 122.194,280.353 121.699,280.353 121.576 C 280.353 121.106,283.201 118.364,283.689 118.364 C 283.971 118.364,284.202 118.220,284.202 118.043 C 284.202 117.867,284.924 117.723,285.806 117.723 C 286.688 117.723,287.410 117.578,287.410 117.402 C 287.410 117.225,288.100 117.081,288.943 117.081 C 290.108 117.081,290.587 116.927,290.938 116.439 C 291.193 116.087,291.626 115.798,291.901 115.798 C 292.176 115.798,292.609 115.509,292.863 115.156 C 293.117 114.804,293.520 114.515,293.759 114.515 C 294.909 114.515,295.564 112.732,294.547 112.371 C 294.238 112.261,290.305 110.743,285.806 108.997 C 276.191 105.266,276.473 105.373,271.529 103.591 C 270.645 103.272,268.468 102.880,266.691 102.719 C 264.859 102.553,262.988 102.191,262.369 101.882 C 261.769 101.583,260.409 101.252,259.348 101.146 C 258.286 101.041,257.273 100.847,257.097 100.716 C 256.921 100.585,255.549 100.382,254.050 100.266 L 251.323 100.054 250.283 101.043 M163.512 102.882 C 162.674 102.948,161.989 103.154,161.989 103.339 C 161.989 103.553,161.489 103.604,160.626 103.479 C 155.876 102.792,152.979 103.040,149.679 104.418 C 149.025 104.691,148.399 104.712,147.523 104.490 C 145.651 104.015,139.204 105.409,133.135 107.601 C 132.350 107.885,130.834 108.114,129.767 108.111 C 128.700 108.108,126.708 108.099,125.341 108.092 C 121.714 108.074,122.041 109.204,125.742 109.477 C 128.682 109.694,129.630 109.999,130.602 111.039 C 131.155 111.631,131.775 111.949,132.376 111.949 C 133.045 111.949,133.758 112.386,134.960 113.532 C 136.254 114.766,136.889 115.138,137.837 115.216 C 138.600 115.279,139.024 115.466,138.974 115.718 C 138.929 115.938,139.038 116.119,139.214 116.119 C 139.391 116.119,139.535 116.258,139.535 116.429 C 139.535 117.057,141.635 119.006,142.313 119.006 C 143.716 119.006,144.026 119.331,144.026 120.804 C 144.026 121.579,144.170 122.213,144.346 122.213 C 144.523 122.213,144.667 122.502,144.667 122.855 C 144.667 123.839,146.236 123.679,147.738 122.543 C 148.431 122.019,149.096 121.586,149.216 121.581 C 149.336 121.576,150.370 121.139,151.513 120.609 C 152.657 120.080,153.760 119.647,153.964 119.647 C 154.169 119.647,154.940 119.294,155.677 118.863 C 156.414 118.432,158.677 117.420,160.706 116.613 C 162.735 115.806,164.683 115.012,165.036 114.847 C 165.389 114.682,166.977 114.023,168.565 113.383 C 174.057 111.170,178.017 108.121,178.025 106.098 C 178.031 104.490,175.368 102.995,173.000 103.277 C 172.148 103.378,170.152 103.283,168.565 103.065 C 166.977 102.847,165.533 102.690,165.357 102.715 C 165.180 102.741,164.350 102.816,163.512 102.882 M122.862 103.639 C 122.858 104.097,122.581 104.720,122.245 105.023 C 120.646 106.471,121.201 107.164,122.889 105.827 C 124.327 104.688,124.331 104.675,123.496 103.609 L 122.869 102.807 122.862 103.639 M390.735 155.627 C 390.714 155.922,390.615 156.427,390.513 156.750 C 390.338 157.307,390.348 157.308,390.695 156.766 C 390.897 156.452,390.996 155.947,390.917 155.643 C 390.786 155.147,390.768 155.145,390.735 155.627 M389.963 158.140 C 389.871 158.492,389.909 158.781,390.049 158.781 C 390.188 158.781,390.378 158.492,390.470 158.140 C 390.562 157.787,390.524 157.498,390.384 157.498 C 390.245 157.498,390.055 157.787,389.963 158.140 M392.533 160.064 C 392.631 161.034,392.764 161.889,392.828 161.962 C 393.066 162.238,392.887 159.556,392.625 158.941 C 392.456 158.542,392.421 158.966,392.533 160.064 M18.679 159.743 C 18.679 160.361,18.745 160.613,18.826 160.305 C 18.906 159.996,18.906 159.491,18.826 159.182 C 18.745 158.873,18.679 159.126,18.679 159.743 M393.039 163.913 C 393.039 164.884,393.099 165.281,393.173 164.796 C 393.246 164.310,393.246 163.516,393.173 163.031 C 393.099 162.546,393.039 162.943,393.039 163.913 M399.787 203.368 C 399.787 204.691,399.844 205.233,399.913 204.571 C 399.982 203.909,399.982 202.827,399.913 202.165 C 399.844 201.504,399.787 202.045,399.787 203.368 M2.386 283.160 C 2.904 283.733,3.553 284.191,3.829 284.177 C 4.261 284.155,4.264 284.127,3.849 283.976 C 3.585 283.880,2.935 283.422,2.406 282.959 L 1.443 282.117 2.386 283.160 M119.411 297.263 C 119.899 297.337,120.620 297.335,121.015 297.259 C 121.409 297.183,121.010 297.122,120.128 297.125 C 119.246 297.127,118.923 297.189,119.411 297.263 M248.444 313.652 C 248.029 314.067,248.353 314.354,249.238 314.354 C 249.767 314.354,250.200 314.227,250.200 314.071 C 250.200 313.751,248.702 313.393,248.444 313.652 M55.776 352.596 C 55.924 353.487,55.969 353.532,56.070 352.890 C 56.135 352.473,56.057 351.999,55.895 351.837 C 55.717 351.659,55.670 351.959,55.776 352.596 M354.624 358.286 C 354.771 358.543,354.973 359.696,355.072 360.849 C 355.224 362.617,355.353 362.962,355.894 363.057 C 356.477 363.159,356.487 363.130,356.007 362.739 C 355.665 362.461,355.429 361.654,355.338 360.454 C 355.261 359.433,355.009 358.423,354.777 358.208 C 354.441 357.897,354.410 357.913,354.624 358.286 M59.850 363.432 C 60.088 364.326,60.240 364.566,60.439 364.367 C 60.513 364.294,60.362 363.873,60.105 363.432 L 59.636 362.630 59.850 363.432 " stroke="none" fill="#247c9c" fill-rule="evenodd"></path><path id="path3" d="M373.055 0.700 C 369.135 3.108,363.758 6.913,362.024 8.507 C 361.828 8.687,361.279 9.135,360.804 9.501 C 360.006 10.117,358.133 11.746,354.023 15.397 C 351.242 17.867,344.707 23.843,343.858 24.692 C 343.413 25.137,342.619 25.838,342.094 26.249 C 341.569 26.661,340.561 27.527,339.855 28.174 C 339.149 28.821,337.850 29.925,336.968 30.627 C 336.086 31.329,335.207 32.051,335.015 32.231 C 334.822 32.411,334.180 32.919,333.589 33.360 C 332.997 33.801,332.072 34.534,331.533 34.990 C 330.994 35.445,328.244 37.674,325.421 39.942 C 322.598 42.211,320.000 44.323,319.647 44.635 C 318.926 45.273,317.012 46.833,315.179 48.276 C 313.821 49.344,302.054 58.876,301.043 59.726 C 299.781 60.786,297.776 62.406,296.553 63.352 C 295.868 63.881,294.794 64.752,294.166 65.288 C 293.150 66.154,290.677 68.155,284.865 72.815 C 283.875 73.609,282.780 74.502,282.431 74.800 C 281.370 75.705,279.262 77.411,277.948 78.428 C 277.264 78.957,276.190 79.828,275.561 80.362 C 274.933 80.896,273.697 81.900,272.815 82.593 C 271.933 83.285,270.778 84.270,270.249 84.780 C 269.719 85.291,268.348 86.372,267.201 87.182 C 266.055 87.993,264.539 89.172,263.833 89.802 C 263.128 90.432,260.031 92.966,256.951 95.433 L 251.353 99.920 252.781 100.137 C 253.567 100.256,254.815 100.364,255.554 100.377 C 256.294 100.390,256.988 100.545,257.097 100.722 C 257.206 100.898,257.828 101.046,258.479 101.050 C 259.130 101.054,260.227 101.189,260.916 101.349 C 262.089 101.620,266.560 98.820,266.560 97.813 C 266.560 97.696,267.101 97.229,267.763 96.776 C 268.424 96.323,269.603 95.366,270.383 94.648 C 271.163 93.931,271.993 93.344,272.228 93.344 C 272.462 93.344,272.654 93.230,272.654 93.090 C 272.654 92.819,279.756 86.959,281.633 85.682 C 282.252 85.260,283.047 84.653,283.400 84.331 C 284.151 83.647,286.128 82.037,287.890 80.674 C 288.574 80.144,289.648 79.273,290.277 78.738 C 291.293 77.872,293.766 75.870,299.577 71.211 C 300.567 70.417,301.663 69.524,302.012 69.226 C 303.073 68.320,305.180 66.614,306.495 65.597 C 307.179 65.068,308.253 64.197,308.881 63.662 C 309.898 62.796,312.371 60.794,318.182 56.135 C 319.172 55.341,320.268 54.448,320.617 54.150 C 321.677 53.244,323.785 51.538,325.099 50.521 C 325.784 49.992,326.858 49.121,327.486 48.585 C 328.502 47.719,330.975 45.718,336.787 41.059 C 337.777 40.265,338.872 39.371,339.221 39.073 C 340.282 38.168,342.390 36.462,343.704 35.445 C 344.388 34.916,345.462 34.045,346.091 33.509 C 349.975 30.200,357.673 24.234,361.185 21.812 C 362.081 21.195,363.205 20.365,363.684 19.968 C 364.163 19.572,364.673 19.247,364.817 19.247 C 364.961 19.246,365.610 18.849,366.260 18.364 C 366.910 17.879,367.586 17.376,367.762 17.247 C 375.095 11.891,379.471 7.665,379.471 5.939 C 379.471 4.745,375.568 -0.007,374.598 0.005 C 374.367 0.008,373.673 0.321,373.055 0.700 M26.824 1.323 C 26.436 3.266,26.605 3.528,31.516 8.576 C 36.392 13.589,41.808 19.185,50.058 27.732 C 52.450 30.210,56.502 34.403,59.064 37.049 C 61.626 39.695,65.803 44.018,68.348 46.655 C 70.893 49.291,75.068 53.611,77.626 56.253 C 82.824 61.622,82.591 61.381,93.023 72.204 C 97.169 76.505,104.178 83.707,108.598 88.208 C 121.380 101.222,123.234 103.158,123.769 104.039 C 124.047 104.497,124.671 104.958,125.156 105.064 C 125.684 105.180,126.305 105.689,126.701 106.330 C 127.783 108.081,130.394 108.592,133.159 107.592 C 139.199 105.410,145.654 104.016,147.523 104.490 C 148.399 104.712,149.025 104.691,149.679 104.418 C 152.979 103.040,155.876 102.792,160.626 103.479 C 162.591 103.763,162.414 103.436,158.505 99.541 C 156.589 97.632,153.233 94.187,151.047 91.884 C 147.501 88.148,145.220 85.700,138.386 78.296 C 132.974 72.432,131.873 71.253,130.393 69.737 C 129.511 68.833,127.706 66.890,126.383 65.419 C 125.060 63.948,122.993 61.739,121.790 60.511 C 119.477 58.149,119.218 57.258,120.551 56.245 C 121.346 55.640,121.607 55.681,127.193 57.288 C 130.012 58.099,132.553 58.809,132.840 58.866 C 133.128 58.923,133.994 59.183,134.765 59.444 C 136.033 59.874,138.282 60.515,139.534 60.804 C 140.103 60.936,152.559 64.514,155.573 65.411 C 160.137 66.771,162.506 67.438,163.254 67.574 C 163.685 67.653,164.877 68.000,165.903 68.346 C 166.929 68.692,168.597 69.183,169.610 69.439 C 170.623 69.694,173.039 70.361,174.980 70.920 C 180.109 72.398,183.617 73.368,186.528 74.111 C 189.031 74.750,189.252 74.892,190.866 76.891 C 191.308 77.438,191.259 77.757,190.617 78.497 C 190.309 78.853,189.705 79.603,189.276 80.163 C 188.284 81.458,187.389 82.425,183.159 86.768 C 179.869 90.147,178.319 91.577,175.140 94.165 C 174.346 94.812,173.591 95.524,173.462 95.747 C 173.116 96.347,168.731 100.664,167.522 101.597 C 166.949 102.040,166.480 102.508,166.480 102.639 C 166.480 103.006,171.266 103.470,173.000 103.270 C 175.372 102.998,178.031 104.495,178.025 106.098 C 178.017 108.121,174.057 111.170,168.565 113.383 C 166.977 114.023,165.389 114.682,165.036 114.847 C 164.683 115.012,162.735 115.806,160.706 116.613 C 158.677 117.420,156.414 118.432,155.677 118.863 C 154.940 119.294,154.169 119.647,153.964 119.647 C 153.760 119.647,152.657 120.080,151.513 120.609 C 150.370 121.139,149.349 121.572,149.246 121.572 C 149.143 121.572,148.572 121.943,147.978 122.396 C 147.384 122.849,146.255 123.439,145.470 123.706 L 144.042 124.193 149.265 129.538 C 152.138 132.478,156.424 136.868,158.788 139.294 C 161.152 141.720,163.197 143.705,163.332 143.705 C 163.467 143.705,166.283 141.071,169.591 137.851 C 180.581 127.152,186.756 121.146,192.428 115.638 C 195.516 112.638,200.568 107.731,203.655 104.731 C 215.655 93.071,220.420 88.445,225.974 83.058 C 235.949 73.384,246.672 62.646,246.672 62.332 C 246.672 62.075,244.300 61.296,243.304 61.226 C 243.128 61.214,242.756 61.082,242.479 60.934 C 242.202 60.786,240.903 60.377,239.592 60.025 C 238.282 59.673,234.322 58.568,230.794 57.570 C 227.265 56.571,224.125 55.703,223.816 55.642 C 223.507 55.580,223.139 55.459,222.999 55.373 C 222.860 55.286,221.669 54.927,220.354 54.574 C 219.039 54.221,215.076 53.115,211.548 52.117 C 208.019 51.118,204.916 50.255,204.651 50.199 C 204.387 50.143,203.773 49.943,203.288 49.756 C 202.803 49.568,202.406 49.488,202.406 49.578 C 202.406 49.668,202.143 49.601,201.822 49.429 C 201.500 49.257,200.165 48.829,198.855 48.477 C 197.544 48.126,193.585 47.021,190.056 46.022 C 186.528 45.023,183.388 44.156,183.078 44.094 C 182.769 44.032,182.401 43.911,182.262 43.825 C 182.122 43.739,180.932 43.379,179.616 43.026 C 178.301 42.673,174.338 41.568,170.810 40.569 C 167.281 39.570,164.141 38.702,163.832 38.641 C 163.523 38.579,163.155 38.458,163.015 38.372 C 162.876 38.285,161.685 37.926,160.370 37.573 C 159.055 37.220,155.092 36.114,151.564 35.116 C 148.035 34.117,144.895 33.249,144.586 33.188 C 144.276 33.126,143.909 33.005,143.769 32.919 C 143.630 32.832,142.439 32.473,141.124 32.121 C 139.809 31.769,135.341 30.518,131.195 29.342 C 127.049 28.165,123.404 27.153,123.094 27.092 C 122.785 27.031,122.417 26.910,122.278 26.824 C 122.138 26.738,120.948 26.378,119.633 26.025 C 118.317 25.673,114.354 24.567,110.826 23.568 C 107.298 22.569,104.157 21.702,103.848 21.640 C 103.539 21.578,103.171 21.457,103.031 21.371 C 102.892 21.285,101.701 20.925,100.386 20.572 C 96.313 19.479,85.297 16.385,82.598 15.575 C 79.085 14.521,66.141 10.881,65.396 10.738 C 65.065 10.674,64.679 10.551,64.539 10.465 C 64.399 10.378,63.209 10.020,61.894 9.667 C 60.579 9.315,56.111 8.064,51.965 6.888 C 47.819 5.711,44.173 4.699,43.864 4.638 C 43.555 4.577,43.187 4.457,43.048 4.370 C 42.908 4.284,41.717 3.925,40.402 3.574 C 39.087 3.222,35.952 2.346,33.435 1.627 C 27.739 0.001,27.095 -0.029,26.824 1.323 M248.556 102.539 C 248.314 102.833,247.519 103.518,246.791 104.062 C 245.316 105.164,237.301 111.644,237.049 111.938 C 236.961 112.041,236.239 112.624,235.445 113.233 C 231.234 116.463,223.391 123.910,220.922 127.025 C 219.859 128.366,217.628 130.896,215.317 133.380 C 214.391 134.375,213.633 135.302,213.633 135.438 C 213.633 136.170,216.264 135.049,218.243 133.474 C 218.926 132.930,221.380 131.527,223.696 130.356 C 230.902 126.713,237.654 121.893,249.400 112.008 C 251.764 110.018,252.828 109.338,253.295 109.517 C 253.579 109.626,253.067 109.046,252.158 108.228 C 249.999 106.288,248.778 104.227,249.032 102.955 C 249.250 101.864,249.170 101.794,248.556 102.539 " stroke="none" fill="#17c3b2" fill-rule="evenodd"></path><path id="path4" d="" stroke="none" fill="#000000" fill-rule="evenodd"></path></g></svg>